<mxfile host="app.diagrams.net" agent="Mozilla/5.0 (X11; Linux x86_64) AppleWebKit/537.36 (KHTML, like Gecko) Chrome/128.0.0.0 Safari/537.36" version="24.7.17">
  <diagram name="Pàgina-1" id="AOktTAZfwnB_Tgp5qAch">
    <mxGraphModel dx="1608" dy="788" grid="1" gridSize="10" guides="1" tooltips="1" connect="1" arrows="1" fold="1" page="1" pageScale="1" pageWidth="827" pageHeight="1169" math="0" shadow="0">
      <root>
        <mxCell id="0" />
        <mxCell id="1" parent="0" />
        <mxCell id="l0ARwbCJCmMyC_EEWA2k-1" value="client" style="swimlane;fontStyle=0;childLayout=stackLayout;horizontal=1;startSize=26;horizontalStack=0;resizeParent=1;resizeParentMax=0;resizeLast=0;collapsible=1;marginBottom=0;align=center;fontSize=14;" vertex="1" parent="1">
          <mxGeometry x="334" y="50" width="160" height="176" as="geometry" />
        </mxCell>
        <mxCell id="l0ARwbCJCmMyC_EEWA2k-2" value="&lt;u&gt;dni&lt;/u&gt;" style="text;strokeColor=none;fillColor=none;spacingLeft=4;spacingRight=4;overflow=hidden;rotatable=0;points=[[0,0.5],[1,0.5]];portConstraint=eastwest;fontSize=12;whiteSpace=wrap;html=1;" vertex="1" parent="l0ARwbCJCmMyC_EEWA2k-1">
          <mxGeometry y="26" width="160" height="30" as="geometry" />
        </mxCell>
        <mxCell id="l0ARwbCJCmMyC_EEWA2k-3" value="nom" style="text;strokeColor=none;fillColor=none;spacingLeft=4;spacingRight=4;overflow=hidden;rotatable=0;points=[[0,0.5],[1,0.5]];portConstraint=eastwest;fontSize=12;whiteSpace=wrap;html=1;" vertex="1" parent="l0ARwbCJCmMyC_EEWA2k-1">
          <mxGeometry y="56" width="160" height="30" as="geometry" />
        </mxCell>
        <mxCell id="l0ARwbCJCmMyC_EEWA2k-4" value="cognom2" style="text;strokeColor=none;fillColor=none;spacingLeft=4;spacingRight=4;overflow=hidden;rotatable=0;points=[[0,0.5],[1,0.5]];portConstraint=eastwest;fontSize=12;whiteSpace=wrap;html=1;" vertex="1" parent="l0ARwbCJCmMyC_EEWA2k-1">
          <mxGeometry y="86" width="160" height="30" as="geometry" />
        </mxCell>
        <mxCell id="l0ARwbCJCmMyC_EEWA2k-5" value="adreca" style="text;strokeColor=none;fillColor=none;spacingLeft=4;spacingRight=4;overflow=hidden;rotatable=0;points=[[0,0.5],[1,0.5]];portConstraint=eastwest;fontSize=12;whiteSpace=wrap;html=1;" vertex="1" parent="l0ARwbCJCmMyC_EEWA2k-1">
          <mxGeometry y="116" width="160" height="30" as="geometry" />
        </mxCell>
        <mxCell id="l0ARwbCJCmMyC_EEWA2k-6" value="telefon" style="text;strokeColor=none;fillColor=none;spacingLeft=4;spacingRight=4;overflow=hidden;rotatable=0;points=[[0,0.5],[1,0.5]];portConstraint=eastwest;fontSize=12;whiteSpace=wrap;html=1;" vertex="1" parent="l0ARwbCJCmMyC_EEWA2k-1">
          <mxGeometry y="146" width="160" height="30" as="geometry" />
        </mxCell>
        <mxCell id="l0ARwbCJCmMyC_EEWA2k-7" value="cotxe" style="swimlane;fontStyle=0;childLayout=stackLayout;horizontal=1;startSize=26;horizontalStack=0;resizeParent=1;resizeParentMax=0;resizeLast=0;collapsible=1;marginBottom=0;align=center;fontSize=14;" vertex="1" parent="1">
          <mxGeometry x="344" y="350" width="160" height="146" as="geometry" />
        </mxCell>
        <mxCell id="l0ARwbCJCmMyC_EEWA2k-8" value="&lt;u&gt;matricula&lt;/u&gt;" style="text;strokeColor=none;fillColor=none;spacingLeft=4;spacingRight=4;overflow=hidden;rotatable=0;points=[[0,0.5],[1,0.5]];portConstraint=eastwest;fontSize=12;whiteSpace=wrap;html=1;" vertex="1" parent="l0ARwbCJCmMyC_EEWA2k-7">
          <mxGeometry y="26" width="160" height="30" as="geometry" />
        </mxCell>
        <mxCell id="l0ARwbCJCmMyC_EEWA2k-9" value="model" style="text;strokeColor=none;fillColor=none;spacingLeft=4;spacingRight=4;overflow=hidden;rotatable=0;points=[[0,0.5],[1,0.5]];portConstraint=eastwest;fontSize=12;whiteSpace=wrap;html=1;" vertex="1" parent="l0ARwbCJCmMyC_EEWA2k-7">
          <mxGeometry y="56" width="160" height="30" as="geometry" />
        </mxCell>
        <mxCell id="l0ARwbCJCmMyC_EEWA2k-10" value="marca" style="text;strokeColor=none;fillColor=none;spacingLeft=4;spacingRight=4;overflow=hidden;rotatable=0;points=[[0,0.5],[1,0.5]];portConstraint=eastwest;fontSize=12;whiteSpace=wrap;html=1;" vertex="1" parent="l0ARwbCJCmMyC_EEWA2k-7">
          <mxGeometry y="86" width="160" height="30" as="geometry" />
        </mxCell>
        <mxCell id="l0ARwbCJCmMyC_EEWA2k-11" value="color" style="text;strokeColor=none;fillColor=none;spacingLeft=4;spacingRight=4;overflow=hidden;rotatable=0;points=[[0,0.5],[1,0.5]];portConstraint=eastwest;fontSize=12;whiteSpace=wrap;html=1;" vertex="1" parent="l0ARwbCJCmMyC_EEWA2k-7">
          <mxGeometry y="116" width="160" height="30" as="geometry" />
        </mxCell>
        <mxCell id="l0ARwbCJCmMyC_EEWA2k-13" value="mecanic" style="swimlane;fontStyle=0;childLayout=stackLayout;horizontal=1;startSize=26;horizontalStack=0;resizeParent=1;resizeParentMax=0;resizeLast=0;collapsible=1;marginBottom=0;align=center;fontSize=14;" vertex="1" parent="1">
          <mxGeometry x="350" y="585" width="160" height="146" as="geometry" />
        </mxCell>
        <mxCell id="l0ARwbCJCmMyC_EEWA2k-14" value="&lt;u&gt;dni&lt;/u&gt;" style="text;strokeColor=none;fillColor=none;spacingLeft=4;spacingRight=4;overflow=hidden;rotatable=0;points=[[0,0.5],[1,0.5]];portConstraint=eastwest;fontSize=12;whiteSpace=wrap;html=1;" vertex="1" parent="l0ARwbCJCmMyC_EEWA2k-13">
          <mxGeometry y="26" width="160" height="30" as="geometry" />
        </mxCell>
        <mxCell id="l0ARwbCJCmMyC_EEWA2k-15" value="nom" style="text;strokeColor=none;fillColor=none;spacingLeft=4;spacingRight=4;overflow=hidden;rotatable=0;points=[[0,0.5],[1,0.5]];portConstraint=eastwest;fontSize=12;whiteSpace=wrap;html=1;" vertex="1" parent="l0ARwbCJCmMyC_EEWA2k-13">
          <mxGeometry y="56" width="160" height="30" as="geometry" />
        </mxCell>
        <mxCell id="l0ARwbCJCmMyC_EEWA2k-16" value="cognom2" style="text;strokeColor=none;fillColor=none;spacingLeft=4;spacingRight=4;overflow=hidden;rotatable=0;points=[[0,0.5],[1,0.5]];portConstraint=eastwest;fontSize=12;whiteSpace=wrap;html=1;" vertex="1" parent="l0ARwbCJCmMyC_EEWA2k-13">
          <mxGeometry y="86" width="160" height="30" as="geometry" />
        </mxCell>
        <mxCell id="l0ARwbCJCmMyC_EEWA2k-17" value="data_contractacio" style="text;strokeColor=none;fillColor=none;spacingLeft=4;spacingRight=4;overflow=hidden;rotatable=0;points=[[0,0.5],[1,0.5]];portConstraint=eastwest;fontSize=12;whiteSpace=wrap;html=1;" vertex="1" parent="l0ARwbCJCmMyC_EEWA2k-13">
          <mxGeometry y="116" width="160" height="30" as="geometry" />
        </mxCell>
        <mxCell id="l0ARwbCJCmMyC_EEWA2k-19" value="" style="endArrow=classic;startArrow=classic;html=1;rounded=0;exitX=0.5;exitY=0;exitDx=0;exitDy=0;" edge="1" parent="1" source="l0ARwbCJCmMyC_EEWA2k-13" target="l0ARwbCJCmMyC_EEWA2k-11">
          <mxGeometry width="50" height="50" relative="1" as="geometry">
            <mxPoint x="420" y="430" as="sourcePoint" />
            <mxPoint x="470" y="380" as="targetPoint" />
          </mxGeometry>
        </mxCell>
        <mxCell id="l0ARwbCJCmMyC_EEWA2k-20" value="" style="endArrow=classic;startArrow=classic;html=1;rounded=0;exitX=0.431;exitY=0.034;exitDx=0;exitDy=0;exitPerimeter=0;entryX=0.481;entryY=1;entryDx=0;entryDy=0;entryPerimeter=0;" edge="1" parent="1" source="l0ARwbCJCmMyC_EEWA2k-7" target="l0ARwbCJCmMyC_EEWA2k-6">
          <mxGeometry width="50" height="50" relative="1" as="geometry">
            <mxPoint x="420" y="430" as="sourcePoint" />
            <mxPoint x="470" y="380" as="targetPoint" />
          </mxGeometry>
        </mxCell>
        <mxCell id="l0ARwbCJCmMyC_EEWA2k-21" value="n" style="text;html=1;align=center;verticalAlign=middle;whiteSpace=wrap;rounded=0;" vertex="1" parent="1">
          <mxGeometry x="420" y="560" width="60" height="30" as="geometry" />
        </mxCell>
        <mxCell id="l0ARwbCJCmMyC_EEWA2k-22" value="m" style="text;html=1;align=center;verticalAlign=middle;whiteSpace=wrap;rounded=0;" vertex="1" parent="1">
          <mxGeometry x="414" y="490" width="60" height="30" as="geometry" />
        </mxCell>
        <mxCell id="l0ARwbCJCmMyC_EEWA2k-26" value="n" style="text;html=1;align=center;verticalAlign=middle;whiteSpace=wrap;rounded=0;" vertex="1" parent="1">
          <mxGeometry x="400" y="320" width="60" height="30" as="geometry" />
        </mxCell>
        <mxCell id="l0ARwbCJCmMyC_EEWA2k-27" value="m" style="text;html=1;align=center;verticalAlign=middle;whiteSpace=wrap;rounded=0;" vertex="1" parent="1">
          <mxGeometry x="400" y="226" width="60" height="30" as="geometry" />
        </mxCell>
        <mxCell id="l0ARwbCJCmMyC_EEWA2k-29" value="cotxe_nou" style="swimlane;fontStyle=0;childLayout=stackLayout;horizontal=1;startSize=26;horizontalStack=0;resizeParent=1;resizeParentMax=0;resizeLast=0;collapsible=1;marginBottom=0;align=center;fontSize=14;" vertex="1" parent="1">
          <mxGeometry x="800" y="413" width="160" height="116" as="geometry" />
        </mxCell>
        <mxCell id="l0ARwbCJCmMyC_EEWA2k-49" value="&lt;u&gt;model´&lt;/u&gt;" style="text;strokeColor=none;fillColor=none;spacingLeft=4;spacingRight=4;overflow=hidden;rotatable=0;points=[[0,0.5],[1,0.5]];portConstraint=eastwest;fontSize=12;whiteSpace=wrap;html=1;" vertex="1" parent="l0ARwbCJCmMyC_EEWA2k-29">
          <mxGeometry y="26" width="160" height="30" as="geometry" />
        </mxCell>
        <mxCell id="l0ARwbCJCmMyC_EEWA2k-48" value="&lt;u&gt;marca&lt;/u&gt;" style="text;strokeColor=none;fillColor=none;spacingLeft=4;spacingRight=4;overflow=hidden;rotatable=0;points=[[0,0.5],[1,0.5]];portConstraint=eastwest;fontSize=12;whiteSpace=wrap;html=1;" vertex="1" parent="l0ARwbCJCmMyC_EEWA2k-29">
          <mxGeometry y="56" width="160" height="30" as="geometry" />
        </mxCell>
        <mxCell id="l0ARwbCJCmMyC_EEWA2k-30" value="quantitats" style="text;strokeColor=none;fillColor=none;spacingLeft=4;spacingRight=4;overflow=hidden;rotatable=0;points=[[0,0.5],[1,0.5]];portConstraint=eastwest;fontSize=12;whiteSpace=wrap;html=1;" vertex="1" parent="l0ARwbCJCmMyC_EEWA2k-29">
          <mxGeometry y="86" width="160" height="30" as="geometry" />
        </mxCell>
        <mxCell id="l0ARwbCJCmMyC_EEWA2k-28" style="edgeStyle=orthogonalEdgeStyle;rounded=0;orthogonalLoop=1;jettySize=auto;html=1;exitX=1;exitY=0.5;exitDx=0;exitDy=0;entryX=0;entryY=0.5;entryDx=0;entryDy=0;" edge="1" parent="1" source="l0ARwbCJCmMyC_EEWA2k-10" target="l0ARwbCJCmMyC_EEWA2k-30">
          <mxGeometry relative="1" as="geometry">
            <mxPoint x="777.04" y="498.01" as="targetPoint" />
          </mxGeometry>
        </mxCell>
        <mxCell id="l0ARwbCJCmMyC_EEWA2k-33" value="cotxe_usat" style="swimlane;fontStyle=0;childLayout=stackLayout;horizontal=1;startSize=26;horizontalStack=0;resizeParent=1;resizeParentMax=0;resizeLast=0;collapsible=1;marginBottom=0;align=center;fontSize=14;" vertex="1" parent="1">
          <mxGeometry x="760" y="280" width="160" height="56" as="geometry" />
        </mxCell>
        <mxCell id="l0ARwbCJCmMyC_EEWA2k-34" value="km" style="text;strokeColor=none;fillColor=none;spacingLeft=4;spacingRight=4;overflow=hidden;rotatable=0;points=[[0,0.5],[1,0.5]];portConstraint=eastwest;fontSize=12;whiteSpace=wrap;html=1;" vertex="1" parent="l0ARwbCJCmMyC_EEWA2k-33">
          <mxGeometry y="26" width="160" height="30" as="geometry" />
        </mxCell>
        <mxCell id="l0ARwbCJCmMyC_EEWA2k-37" style="edgeStyle=orthogonalEdgeStyle;rounded=0;orthogonalLoop=1;jettySize=auto;html=1;exitX=1;exitY=0.5;exitDx=0;exitDy=0;entryX=0;entryY=0.5;entryDx=0;entryDy=0;" edge="1" parent="1" source="l0ARwbCJCmMyC_EEWA2k-9" target="l0ARwbCJCmMyC_EEWA2k-33">
          <mxGeometry relative="1" as="geometry" />
        </mxCell>
        <mxCell id="l0ARwbCJCmMyC_EEWA2k-38" value="reparacio" style="swimlane;fontStyle=0;childLayout=stackLayout;horizontal=1;startSize=26;horizontalStack=0;resizeParent=1;resizeParentMax=0;resizeLast=0;collapsible=1;marginBottom=0;align=center;fontSize=14;" vertex="1" parent="1">
          <mxGeometry x="20" y="500" width="160" height="116" as="geometry" />
        </mxCell>
        <mxCell id="l0ARwbCJCmMyC_EEWA2k-39" value="&lt;u&gt;num_reparacio&lt;/u&gt;" style="text;strokeColor=none;fillColor=none;spacingLeft=4;spacingRight=4;overflow=hidden;rotatable=0;points=[[0,0.5],[1,0.5]];portConstraint=eastwest;fontSize=12;whiteSpace=wrap;html=1;" vertex="1" parent="l0ARwbCJCmMyC_EEWA2k-38">
          <mxGeometry y="26" width="160" height="30" as="geometry" />
        </mxCell>
        <mxCell id="l0ARwbCJCmMyC_EEWA2k-40" value="data_reparacio" style="text;strokeColor=none;fillColor=none;spacingLeft=4;spacingRight=4;overflow=hidden;rotatable=0;points=[[0,0.5],[1,0.5]];portConstraint=eastwest;fontSize=12;whiteSpace=wrap;html=1;" vertex="1" parent="l0ARwbCJCmMyC_EEWA2k-38">
          <mxGeometry y="56" width="160" height="30" as="geometry" />
        </mxCell>
        <mxCell id="l0ARwbCJCmMyC_EEWA2k-41" value="hores_invertides" style="text;strokeColor=none;fillColor=none;spacingLeft=4;spacingRight=4;overflow=hidden;rotatable=0;points=[[0,0.5],[1,0.5]];portConstraint=eastwest;fontSize=12;whiteSpace=wrap;html=1;" vertex="1" parent="l0ARwbCJCmMyC_EEWA2k-38">
          <mxGeometry y="86" width="160" height="30" as="geometry" />
        </mxCell>
        <mxCell id="l0ARwbCJCmMyC_EEWA2k-44" value="1" style="text;html=1;align=center;verticalAlign=middle;whiteSpace=wrap;rounded=0;" vertex="1" parent="1">
          <mxGeometry x="504" y="380" width="60" height="30" as="geometry" />
        </mxCell>
        <mxCell id="l0ARwbCJCmMyC_EEWA2k-45" value="1" style="text;html=1;align=center;verticalAlign=middle;whiteSpace=wrap;rounded=0;" vertex="1" parent="1">
          <mxGeometry x="710" y="270" width="60" height="30" as="geometry" />
        </mxCell>
        <mxCell id="l0ARwbCJCmMyC_EEWA2k-46" value="n" style="text;html=1;align=center;verticalAlign=middle;whiteSpace=wrap;rounded=0;" vertex="1" parent="1">
          <mxGeometry x="510" y="463" width="60" height="30" as="geometry" />
        </mxCell>
        <mxCell id="l0ARwbCJCmMyC_EEWA2k-47" value="1" style="text;html=1;align=center;verticalAlign=middle;whiteSpace=wrap;rounded=0;" vertex="1" parent="1">
          <mxGeometry x="740" y="446" width="60" height="50" as="geometry" />
        </mxCell>
        <mxCell id="l0ARwbCJCmMyC_EEWA2k-53" value="n" style="text;html=1;align=center;verticalAlign=middle;whiteSpace=wrap;rounded=0;" vertex="1" parent="1">
          <mxGeometry x="274" y="416" width="60" height="30" as="geometry" />
        </mxCell>
        <mxCell id="l0ARwbCJCmMyC_EEWA2k-55" value="n" style="text;html=1;align=center;verticalAlign=middle;whiteSpace=wrap;rounded=0;" vertex="1" parent="1">
          <mxGeometry x="504" y="613" width="60" height="30" as="geometry" />
        </mxCell>
        <mxCell id="l0ARwbCJCmMyC_EEWA2k-56" value="" style="edgeStyle=entityRelationEdgeStyle;fontSize=12;html=1;endArrow=ERzeroToMany;startArrow=ERmandOne;rounded=0;exitX=0;exitY=0.5;exitDx=0;exitDy=0;entryX=1;entryY=0.5;entryDx=0;entryDy=0;" edge="1" parent="1" source="l0ARwbCJCmMyC_EEWA2k-10" target="l0ARwbCJCmMyC_EEWA2k-39">
          <mxGeometry width="100" height="100" relative="1" as="geometry">
            <mxPoint x="1040" y="470" as="sourcePoint" />
            <mxPoint x="1140" y="370" as="targetPoint" />
            <Array as="points">
              <mxPoint x="400" y="720" />
              <mxPoint x="390" y="790" />
              <mxPoint x="520" y="590" />
              <mxPoint x="340" y="790" />
              <mxPoint x="540" y="570" />
            </Array>
          </mxGeometry>
        </mxCell>
        <mxCell id="l0ARwbCJCmMyC_EEWA2k-57" value="" style="endArrow=none;html=1;rounded=0;exitX=0.438;exitY=1.067;exitDx=0;exitDy=0;exitPerimeter=0;entryX=0;entryY=0.5;entryDx=0;entryDy=0;" edge="1" parent="1" source="l0ARwbCJCmMyC_EEWA2k-41" target="l0ARwbCJCmMyC_EEWA2k-15">
          <mxGeometry width="50" height="50" relative="1" as="geometry">
            <mxPoint x="560" y="560" as="sourcePoint" />
            <mxPoint x="610" y="510" as="targetPoint" />
            <Array as="points">
              <mxPoint x="90" y="700" />
              <mxPoint x="170" y="700" />
              <mxPoint x="270" y="700" />
              <mxPoint x="270" y="656" />
            </Array>
          </mxGeometry>
        </mxCell>
      </root>
    </mxGraphModel>
  </diagram>
</mxfile>
